<svg width="20" height="20" viewBox="0 0 20 20" fill="none" xmlns="http://www.w3.org/2000/svg">
<g clip-path="url(#clip0_0_44)">
<path d="M19.8052 10.2303C19.8052 9.55056 19.7501 8.86711 19.6325 8.19836H10.2002V12.0492H15.6016C15.3775 13.2911 14.6573 14.3898 13.6027 15.0879V17.5866H16.8252C18.7176 15.8449 19.8052 13.2728 19.8052 10.2303Z" fill="#4285F4"/>
<path d="M10.1999 20.0006C12.897 20.0006 15.1714 19.1151 16.8286 17.5865L13.6061 15.0879C12.7096 15.6979 11.5521 16.0433 10.2036 16.0433C7.59474 16.0433 5.38272 14.2832 4.58904 11.9169H1.26367V14.4927C2.96127 17.8695 6.41892 20.0006 10.1999 20.0006Z" fill="#34A853"/>
<path d="M4.58564 11.9169C4.16676 10.675 4.16676 9.33014 4.58564 8.08818V5.51239H1.26395C-0.154389 8.33804 -0.154389 11.6671 1.26395 14.4927L4.58564 11.9169Z" fill="#FBBC04"/>
<path d="M10.1999 3.95805C11.6256 3.936 13.0035 4.47247 14.036 5.45722L16.8911 2.60218C15.0833 0.904587 12.6838 -0.0287217 10.1999 0.000673888C6.41892 0.000673888 2.96126 2.13185 1.26367 5.51234L4.58537 8.08813C5.37537 5.71811 7.59106 3.95805 10.1999 3.95805Z" fill="#EA4335"/>
</g>
<defs>
<clipPath id="clip0_0_44">
<rect width="20" height="20" fill="white"/>
</clipPath>
</defs>
</svg>
